<svg width="14" height="10" viewBox="0 0 14 10" xmlns="http://www.w3.org/2000/svg"><title>“</title><path d="M11.338 8.402c-.082.328-.182.536-.299.624-.117.088-.316.132-.598.132H7.348a.532.532 0 0 1-.317-.088c-.082-.058-.123-.129-.123-.21 0-.036.012-.089.035-.159a4.23 4.23 0 0 0 .07-.228L10.882.51c.094-.176.187-.305.281-.387a.43.43 0 0 1 .28-.123c.059 0 .135.012.229.035.035.024.058.035.07.035l1.002.37c.14.046.25.12.325.22a.516.516 0 0 1 .115.324c0 .094-.003.167-.01.22a.652.652 0 0 1-.026.132l-1.81 7.066zm-6.908 0c-.082.328-.182.536-.3.624-.116.088-.316.132-.597.132H.475a.607.607 0 0 1-.343-.088C.044 9.012 0 8.941 0 8.86c0-.036.009-.089.026-.159.018-.07.044-.146.08-.228L3.955.51a1.64 1.64 0 0 1 .298-.387A.468.468 0 0 1 4.57 0c.059 0 .135.012.229.035.023.024.047.035.07.035l.967.37c.14.046.255.12.343.22a.482.482 0 0 1 .105.483 6.757 6.757 0 0 1-.061.193L4.43 8.402z" fill="#1CB65B" fill-rule="evenodd"/></svg>