<?xml version="1.0" encoding="UTF-8"?>
<svg width="50px" height="60px" viewBox="0 0 50 60" version="1.1" xmlns="http://www.w3.org/2000/svg" xmlns:xlink="http://www.w3.org/1999/xlink">
    <!-- Generator: Sketch 41.2 (35397) - http://www.bohemiancoding.com/sketch -->
    <title>android</title>
    <desc>Created with Sketch.</desc>
    <defs></defs>
    <g id="Page-1" stroke="none" stroke-width="1" fill="none" fill-rule="evenodd">
        <g id="Artboard" transform="translate(-831.000000, -264.000000)">
            <g id="android" transform="translate(826.000000, 264.000000)">
                <g id="Group">
                    <polygon id="Shape" points="0 0 60 0 60 60 0 60"></polygon>
                    <path d="M15,45 C15,46.375 16.125,47.5 17.5,47.5 L20,47.5 L20,56.25 C20,58.325 21.675,60 23.75,60 C25.825,60 27.5,58.325 27.5,56.25 L27.5,47.5 L32.5,47.5 L32.5,56.25 C32.5,58.325 34.175,60 36.25,60 C38.325,60 40,58.325 40,56.25 L40,47.5 L42.5,47.5 C43.875,47.5 45,46.375 45,45 L45,20 L15,20 L15,45 Z M8.75,20 C6.675,20 5,21.675 5,23.75 L5,41.25 C5,43.325 6.675,45 8.75,45 C10.825,45 12.5,43.325 12.5,41.25 L12.5,23.75 C12.5,21.675 10.825,20 8.75,20 Z M51.25,20 C49.175,20 47.5,21.675 47.5,23.75 L47.5,41.25 C47.5,43.325 49.175,45 51.25,45 C53.325,45 55,43.325 55,41.25 L55,23.75 C55,21.675 53.325,20 51.25,20 Z M38.825,5.4 L42.075,2.15 C42.575,1.65 42.575,0.875 42.075,0.375 C41.575,-0.125 40.8,-0.125 40.3,0.375 L36.6,4.075 C34.625,3.075 32.375,2.5 30,2.5 C27.6,2.5 25.35,3.075 23.35,4.075 L19.625,0.375 C19.125,-0.125 18.35,-0.125 17.85,0.375 C17.35,0.875 17.35,1.65 17.85,2.15 L21.125,5.425 C17.425,8.15 15,12.525 15,17.5 L45,17.5 C45,12.525 42.575,8.125 38.825,5.4 L38.825,5.4 Z M25,12.5 L22.5,12.5 L22.5,10 L25,10 L25,12.5 Z M37.5,12.5 L35,12.5 L35,10 L37.5,10 L37.5,12.5 Z" id="Shape" fill="#6AB344"></path>
                </g>
            </g>
        </g>
    </g>
</svg>