<?xml version="1.0" encoding="UTF-8"?>
<svg width="15px" height="15px" viewBox="0 0 15 15" version="1.1" xmlns="http://www.w3.org/2000/svg" xmlns:xlink="http://www.w3.org/1999/xlink">
    <!-- Generator: Sketch 40.1 (33804) - http://www.bohemiancoding.com/sketch -->
    <title>Page 1</title>
    <desc>Created with Sketch.</desc>
    <defs></defs>
    <g id="Page-1" stroke="none" stroke-width="1" fill="none" fill-rule="evenodd" fill-opacity="0.5">
        <g id="博客" transform="translate(-1292.000000, -160.000000)" fill="rgba(0,0,0,.5)">
            <g id="profile" transform="translate(0.000000, 40.000000)">
                <g id="search" transform="translate(1086.000000, 113.000000)">
                    <path d="M216.688,17.0785 C217.509167,16.052 218,14.75 218,13.3333333 C218,10.0196667 215.313833,7.33333333 212,7.33333333 C208.686333,7.33333333 206,10.0196667 206,13.3333333 C206,16.647 208.686333,19.3333333 212,19.3333333 C213.416667,19.3333333 214.718667,18.8423333 215.745167,18.0211667 L219.528667,21.8046667 C219.658833,21.9348335 219.8295,22 220,22 C220.170667,22 220.341333,21.9348333 220.4715,21.8046667 C220.731833,21.5444997 220.731833,21.122167 220.4715,20.862 L216.688,17.0785 Z M212,18 C209.422667,18 207.333333,15.9106667 207.333333,13.3333333 C207.333333,10.756 209.422667,8.66666667 212,8.66666667 C214.5775,8.66666667 216.666667,10.756 216.666667,13.3333333 C216.666667,15.9106667 214.5775,18 212,18 L212,18 Z" id="Page-1"></path>
                </g>
            </g>
        </g>
    </g>
</svg>