<?xml version="1.0" encoding="UTF-8"?>
<svg width="50px" height="59px" viewBox="0 0 50 59" version="1.1" xmlns="http://www.w3.org/2000/svg" xmlns:xlink="http://www.w3.org/1999/xlink">
    <!-- Generator: Sketch 41.2 (35397) - http://www.bohemiancoding.com/sketch -->
    <title>iphone</title>
    <desc>Created with Sketch.</desc>
    <defs></defs>
    <g id="Page-1" stroke="none" stroke-width="1" fill="none" fill-rule="evenodd">
        <g id="Artboard" transform="translate(-956.000000, -260.000000)" fill="#000000">
            <g id="iphone" transform="translate(956.000000, 260.000000)">
                <g id="Global_Nav_Large_Icons">
                    <g id="Page-1">
                        <g id="Global_Nav_Large_Icons">
                            <path d="M49.6229422,43.3181517 C49.2952142,44.2630317 48.9520272,45.1648226 48.5871977,46.0296802 C47.6967665,48.0733294 46.6455631,49.9538558 45.4274039,51.6804932 C43.7702125,54.0380765 42.4098317,55.6693023 41.36172,56.5741711 C39.7385382,58.0607412 37.997869,58.8240318 36.1335287,58.8640431 C34.7947903,58.8640431 33.1839756,58.4854755 31.3041766,57.7191071 C29.4212857,56.9527386 27.6898918,56.5741711 26.1069031,56.5741711 C24.44662,56.5741711 22.6657578,56.9527386 20.7612245,57.7191071 C18.8535995,58.4854755 17.3169874,58.8886654 16.1421129,58.9255988 C14.3550671,59.0025434 12.5742048,58.220786 10.7964343,56.5741711 C9.66175297,55.58928 8.24262833,53.8995762 6.54215219,51.5081372 C4.71800505,48.9535758 3.21849428,45.9896689 2.04361986,42.6102612 C0.785267514,38.9630862 0.154545455,35.4297891 0.154545455,32.0103702 C0.154545455,28.09235 1.00478352,24.7129422 2.70835145,21.8813802 C4.04708993,19.6068971 5.82795221,17.8125485 8.05712184,16.4952566 C10.2862915,15.1779647 12.694784,14.5070076 15.2887831,14.4639186 C16.7079077,14.4639186 18.5691561,14.900964 20.8818036,15.759666 C23.1882677,16.6214457 24.6692278,17.0584912 25.3185006,17.0584912 C25.8039092,17.0584912 27.4487333,16.5475789 30.2375143,15.5288322 C32.8747981,14.5839522 35.100876,14.1930735 36.9250231,14.3469627 C41.8656793,14.743997 45.5758091,16.6830014 48.046137,20.1762872 C43.627991,22.8416489 41.4421061,26.575002 41.485391,31.3640352 C41.5255841,35.0943106 42.8828732,38.1997955 45.5541667,40.6651011 C46.7661423,41.8069594 48.1203397,42.6902835 49.6229422,43.3181517 Z M37.1940076,0.469230769 C37.2342007,0.860109448 37.2527513,1.25098813 37.2527513,1.63878902 C37.2527513,4.56268465 36.1799054,7.29267982 34.0434891,9.8195412 C31.461857,12.8234592 28.3391646,14.5593299 24.9536712,14.285407 C24.9103862,13.9345396 24.8856521,13.5652054 24.8856521,13.1774045 C24.8856521,10.3704647 26.1130866,7.36654666 28.292788,4.91047434 C29.3810926,3.66704925 30.7662078,2.63291354 32.4419497,1.80806718 C34.1176916,0.995531982 35.7037721,0.546175391 37.1940076,0.469230769 Z" id="Apple"></path>
                        </g>
                    </g>
                </g>
            </g>
        </g>
    </g>
</svg>