<?xml version="1.0" encoding="UTF-8" standalone="no"?>
<svg width="23px" height="24px" viewBox="0 0 23 24" version="1.1" xmlns="http://www.w3.org/2000/svg" xmlns:xlink="http://www.w3.org/1999/xlink">
    <!-- Generator: Sketch 39.1 (31720) - http://www.bohemiancoding.com/sketch -->
    <title>logo</title>
    <desc>Created with Sketch.</desc>
    <defs></defs>
    <g id="个人空间" stroke="none" stroke-width="1" fill="none" fill-rule="evenodd">
        <g id="个人空间_自己_展开添加" transform="translate(-19.000000, -8.000000)" fill="#FFFFFF">
            <g id="top-bar">
                <path d="M30.5512831,24.5218136 C28.0855414,24.5385007 26.0671958,22.9057702 25.9308737,19.8666285 C25.8041591,17.0389438 28.2551001,15.1293114 30.614121,15.0727317 C33.3257618,15.0078083 34.9463066,18.1280391 34.9463066,18.1280391 L41.9335268,15.5253698 C41.9335268,15.5253698 39.0595979,8 31.283787,8 C24.0148346,8 18.9997403,13.0924398 19,19.9951714 C19.0002597,26.1321207 23.7333619,32.2732417 31.1147476,31.9906036 C39.222665,31.6795452 42,24.4764454 42,24.4764454 L34.8336137,22.0886228 C34.8336137,22.0886228 33.3709428,24.5218136 30.5512831,24.5218136 L30.5512831,24.5218136 Z" id="logo"></path>
            </g>
        </g>
    </g>
</svg>