<?xml version="1.0" encoding="UTF-8" standalone="no"?>
<svg width="14px" height="10px" viewBox="0 0 14 10" version="1.1" xmlns="http://www.w3.org/2000/svg" xmlns:xlink="http://www.w3.org/1999/xlink">
    <!-- Generator: Sketch 39.1 (31720) - http://www.bohemiancoding.com/sketch -->
    <title>“</title>
    <desc>Created with Sketch.</desc>
    <defs></defs>
    <g id="详情" stroke="none" stroke-width="1" fill="none" fill-rule="evenodd">
        <g id="博客详情" transform="translate(-456.000000, -1211.000000)" fill="#1CB65B">
            <path d="M467.337891,1219.40234 C467.255859,1219.73047 467.156251,1219.93848 467.039062,1220.02637 C466.921874,1220.11426 466.722658,1220.1582 466.441406,1220.1582 L463.347656,1220.1582 C463.218749,1220.1582 463.113282,1220.12891 463.03125,1220.07031 C462.949218,1220.01172 462.908203,1219.94141 462.908203,1219.85938 C462.908203,1219.82422 462.919922,1219.77148 462.943359,1219.70117 C462.966797,1219.63086 462.990234,1219.55469 463.013672,1219.47266 L466.880859,1211.50977 C466.97461,1211.33398 467.068359,1211.20508 467.162109,1211.12305 C467.25586,1211.04102 467.349609,1211 467.443359,1211 C467.501953,1211 467.578125,1211.01172 467.671875,1211.03516 C467.707031,1211.05859 467.730469,1211.07031 467.742188,1211.07031 L468.744141,1211.43945 C468.884766,1211.48633 468.993164,1211.55957 469.069336,1211.65918 C469.145508,1211.75879 469.183594,1211.86719 469.183594,1211.98438 C469.183594,1212.07813 469.180664,1212.15137 469.174805,1212.2041 C469.168945,1212.25684 469.160156,1212.30078 469.148438,1212.33594 L467.337891,1219.40234 Z M460.429688,1219.40234 C460.347656,1219.73047 460.248047,1219.93848 460.130859,1220.02637 C460.013671,1220.11426 459.814455,1220.1582 459.533203,1220.1582 L456.474609,1220.1582 C456.333984,1220.1582 456.219727,1220.12891 456.131836,1220.07031 C456.043945,1220.01172 456,1219.94141 456,1219.85938 C456,1219.82422 456.008789,1219.77148 456.026367,1219.70117 C456.043945,1219.63086 456.070312,1219.55469 456.105469,1219.47266 L459.955078,1211.50977 C460.060547,1211.33398 460.160156,1211.20508 460.253906,1211.12305 C460.347657,1211.04102 460.453124,1211 460.570312,1211 C460.628907,1211 460.705078,1211.01172 460.798828,1211.03516 C460.822266,1211.05859 460.845703,1211.07031 460.869141,1211.07031 L461.835938,1211.43945 C461.976563,1211.48633 462.09082,1211.55957 462.178711,1211.65918 C462.266602,1211.75879 462.310547,1211.86719 462.310547,1211.98438 C462.310547,1212.03125 462.301758,1212.08398 462.28418,1212.14258 C462.266601,1212.20117 462.246094,1212.26562 462.222656,1212.33594 L460.429688,1219.40234 Z" id="“"></path>
        </g>
    </g>
</svg>